<?xml version="1.0" encoding="iso-8859-1"?>
<!-- Generator: Adobe Illustrator 19.0.0, SVG Export Plug-In . SVG Version: 6.00 Build 0)  -->
<svg xmlns="http://www.w3.org/2000/svg" xmlns:xlink="http://www.w3.org/1999/xlink" version="1.1" id="Capa_1" x="0px" y="0px" viewBox="0 0 64.001 64.001" style="enable-background:new 0 0 64.001 64.001;" xml:space="preserve" width="512px" height="512px">
<g>
	<path d="M56.881,7.527c-0.024-0.045-0.059-0.082-0.089-0.122c-0.023-0.031-0.042-0.066-0.068-0.093   c-0.035-0.036-0.076-0.063-0.116-0.094c-0.031-0.024-0.059-0.054-0.093-0.074c-0.047-0.028-0.099-0.045-0.15-0.065   c-0.032-0.013-0.062-0.032-0.095-0.041c-0.086-0.024-0.177-0.037-0.269-0.037h-48c-0.092,0-0.183,0.013-0.269,0.037   c-0.035,0.01-0.066,0.029-0.099,0.043c-0.05,0.02-0.101,0.036-0.147,0.064c-0.034,0.02-0.063,0.05-0.094,0.074   c-0.039,0.03-0.08,0.056-0.114,0.092C7.251,7.34,7.232,7.375,7.208,7.407c-0.03,0.04-0.064,0.076-0.088,0.12l-7,13   c-0.184,0.341-0.154,0.757,0.076,1.068l31,42c0.002,0.002,0.004,0.003,0.006,0.005c0.084,0.112,0.192,0.196,0.312,0.263   c0.029,0.016,0.056,0.029,0.086,0.042c0.125,0.056,0.259,0.096,0.4,0.096l0,0l0,0l0,0c0.056,0,0.113-0.005,0.171-0.014   c0.075-0.013,0.14-0.047,0.208-0.076c0.03-0.013,0.062-0.018,0.091-0.033c0.124-0.067,0.23-0.157,0.315-0.266   c0.006-0.007,0.015-0.01,0.021-0.017l31-42c0.23-0.311,0.259-0.727,0.076-1.068L56.881,7.527z M8.108,9.912l6.984,10.089H2.675   L8.108,9.912z M33.001,22.001h12.581L33.001,57.227V22.001z M33.79,20.001l6.153-9.998l5.384,9.998H33.79z M32.001,19.093   L25.79,9.001h12.421L32.001,19.093z M30.212,20.001H18.675l5.383-9.998L30.212,20.001z M31.001,22.001v35.227L18.42,22.001H31.001z    M16.296,22.001L28.778,56.95L2.982,22.001H16.296z M47.706,22.001H61.02L35.224,56.95L47.706,22.001z M48.91,20.001l6.985-10.089   l5.432,10.089H48.91z M47.108,19.09L41.675,9.001h12.417L47.108,19.09z M22.327,9.001L16.894,19.09L9.91,9.001H22.327z" fill="#FFF"/>
	<rect x="59.001" y="0.001" width="2" height="3" fill="#E48632"/>
	<rect x="59.001" y="5.001" width="2" height="3" fill="#E48632"/>
	<rect x="61.001" y="3.001" width="3" height="2" fill="#E48632"/>
	<rect x="56.001" y="3.001" width="3" height="2" fill="#E48632"/>
</g>
<g>
</g>
<g>
</g>
<g>
</g>
<g>
</g>
<g>
</g>
<g>
</g>
<g>
</g>
<g>
</g>
<g>
</g>
<g>
</g>
<g>
</g>
<g>
</g>
<g>
</g>
<g>
</g>
<g>
</g>
</svg>
